<?xml version="1.0" standalone="no"?>
<!DOCTYPE svg PUBLIC "-//W3C//DTD SVG 20010904//EN"
 "http://www.w3.org/TR/2001/REC-SVG-20010904/DTD/svg10.dtd">
<svg version="1.0" xmlns="http://www.w3.org/2000/svg"
 width="400.000000pt" height="400.000000pt" viewBox="0 0 400.000000 400.000000"
 preserveAspectRatio="xMidYMid meet">

<g transform="translate(0.000000,400.000000) scale(0.100000,-0.100000)"
fill="#fc3b00" stroke="none">
<path d="M1800 3993 c-14 -2 -95 -22 -180 -44 -440 -113 -827 -343 -1107 -658
-152 -171 -288 -402 -363 -616 -93 -264 -123 -606 -81 -897 92 -635 471 -1196
1023 -1518 125 -72 313 -151 445 -186 200 -54 502 -79 623 -53 25 5 90 16 145
23 196 28 376 85 559 179 543 277 959 813 1075 1384 12 56 21 114 22 130 1 28
1 28 8 3 15 -50 26 70 26 286 0 180 -2 213 -16 227 -9 9 -19 42 -23 74 -10 89
-59 266 -105 377 -177 432 -534 818 -975 1054 -203 109 -434 182 -627 198 -68
6 -83 10 -87 26 -4 17 -17 18 -171 17 -91 -1 -177 -4 -191 -6z m410 -269 c263
-45 527 -157 752 -319 112 -80 327 -298 410 -415 83 -116 206 -362 247 -490
59 -188 75 -304 76 -525 0 -157 -4 -218 -19 -285 -45 -209 -84 -319 -173 -492
-101 -195 -180 -268 -288 -268 -28 0 -58 6 -67 13 -9 6 -53 58 -97 114 -87
109 -270 309 -521 568 -191 196 -215 234 -215 330 0 135 46 194 497 632 133
129 222 225 252 269 54 83 102 202 84 209 -42 14 -194 55 -241 65 l-57 11 -67
-47 c-180 -127 -299 -251 -518 -544 -157 -209 -257 -329 -277 -330 -22 0 -36
15 -440 481 -288 332 -548 657 -548 686 0 8 146 97 280 171 131 72 332 147
479 178 83 17 317 11 451 -12z m-1408 -667 c71 -96 244 -296 397 -457 478
-505 525 -567 525 -690 0 -78 -22 -127 -113 -247 -54 -71 -417 -443 -467 -477
-11 -8 -54 -54 -95 -101 -41 -48 -100 -107 -132 -131 -51 -38 -66 -44 -108
-44 -157 0 -297 153 -418 457 -65 162 -153 506 -136 533 4 7 233 10 656 10
l651 0 -7 33 c-18 87 -77 148 -166 173 -40 11 -96 14 -219 12 l-165 -3 -7 130
c-13 235 -42 344 -123 471 -60 93 -59 96 -90 -281 -10 -110 -20 -220 -24 -245
l-6 -45 -185 -11 c-102 -7 -216 -12 -254 -13 l-69 -1 6 90 c21 283 140 581
306 762 51 56 161 138 185 138 7 0 33 -28 58 -63z m1297 -1477 c121 -65 247
-196 426 -445 186 -259 275 -365 373 -447 l42 -35 -44 -61 c-136 -185 -424
-296 -801 -309 -255 -9 -415 18 -628 103 -129 52 -208 98 -259 151 -70 72 -73
139 -10 221 62 82 414 491 555 647 199 217 233 235 346 175z"/>
<path d="M3010 2155 c-188 -28 -377 -95 -480 -171 -33 -24 -60 -51 -60 -59 0
-8 1 -15 3 -16 10 -2 934 -28 1015 -29 115 0 115 0 90 82 -26 87 -115 155
-243 187 -72 18 -226 21 -325 6z"/>
</g>
</svg>
