<?xml version="1.0" standalone="no"?>
<!DOCTYPE svg PUBLIC "-//W3C//DTD SVG 20010904//EN"
 "http://www.w3.org/TR/2001/REC-SVG-20010904/DTD/svg10.dtd">
<svg version="1.0" xmlns="http://www.w3.org/2000/svg"
 width="150.000000pt" height="46.000000pt" viewBox="0 0 150.000000 46.000000"
 preserveAspectRatio="xMidYMid meet">

<g transform="translate(0.000000,46.000000) scale(0.100000,-0.100000)"
fill="#ffd43b" stroke="none">
<path d="M198 414 c-21 -15 -38 -31 -38 -36 0 -5 -4 -6 -10 -3 -6 4 -7 -1 -3
-11 4 -11 3 -15 -4 -11 -18 11 -43 -80 -43 -152 0 -73 20 -117 64 -147 49 -32
109 5 152 92 45 92 36 227 -18 271 -30 25 -62 24 -100 -3z m90 -44 c8 -16 11
-46 8 -80 l-4 -55 14 50 14 50 -5 -63 c-5 -68 -23 -112 -63 -154 -32 -34 -46
-35 -77 -3 -27 26 -31 25 -14 -6 5 -11 22 -24 36 -30 14 -5 23 -12 20 -16 -4
-3 -20 0 -36 7 -78 32 -74 196 9 299 31 39 77 40 98 1z"/>
<path d="M990 350 c0 -5 5 -10 10 -10 6 0 10 -38 10 -95 0 -57 -4 -95 -10 -95
-5 0 -10 -4 -10 -10 0 -5 16 -10 35 -10 34 0 46 12 25 25 -5 3 -10 24 -10 45
0 30 5 40 20 45 11 3 24 3 30 0 13 -8 13 -82 0 -90 -21 -13 -9 -25 25 -25 34
0 46 12 25 25 -5 3 -10 30 -10 60 0 45 -3 55 -20 60 -10 3 -28 1 -39 -4 -31
-17 -33 -14 -26 39 l7 50 -31 0 c-17 0 -31 -4 -31 -10z"/>
<path d="M578 305 c-4 -37 8 -48 19 -17 7 17 22 32 36 32 4 0 7 -36 7 -80 0
-62 -3 -82 -15 -86 -31 -12 -13 -24 35 -24 48 0 66 12 35 24 -11 4 -15 23 -15
80 0 41 4 77 9 81 10 6 41 -21 41 -36 0 -5 5 -9 10 -9 6 0 10 16 10 35 l0 35
-84 0 -84 0 -4 -35z"/>
<path d="M862 328 c-23 -12 -38 -48 -29 -72 3 -7 25 -24 48 -37 50 -28 58 -44
30 -59 -25 -13 -61 2 -61 25 0 8 -4 15 -10 15 -5 0 -10 -13 -10 -29 0 -35 24
-46 74 -37 78 15 85 78 14 118 -49 27 -60 53 -27 63 17 6 27 2 40 -14 23 -28
31 -27 27 7 -3 23 -8 27 -38 29 -19 1 -45 -3 -58 -9z"/>
<path d="M452 274 c-12 -8 -22 -20 -22 -27 0 -8 3 -8 12 1 7 7 20 12 30 12 29
0 21 -39 -18 -87 l-36 -44 68 3 c63 3 69 5 72 26 4 26 -3 28 -24 7 -17 -16
-54 -21 -54 -6 0 5 7 14 16 22 14 11 44 61 44 73 0 11 -33 36 -48 36 -10 0
-28 -7 -40 -16z"/>
<path d="M1201 263 c-11 -10 -24 -32 -27 -50 -5 -26 -1 -37 19 -57 32 -31 56
-33 91 -5 20 16 26 29 26 59 0 62 -62 92 -109 53z m65 -28 c29 -45 -5 -104
-41 -69 -18 18 -20 65 -3 82 17 17 26 15 44 -13z"/>
<path d="M1352 273 c-10 -4 -10 -8 -2 -18 13 -15 9 -148 -4 -177 -7 -15 -3
-18 28 -18 35 0 47 12 26 25 -15 10 -12 45 5 45 29 0 64 23 75 50 24 57 -17
114 -66 91 -15 -6 -24 -7 -24 -1 0 11 -16 12 -38 3z m98 -68 c0 -35 -29 -63
-50 -50 -15 9 -12 92 3 98 25 9 47 -13 47 -48z"/>
</g>
</svg>
